# xmcd
#
# Track frame offsets:
#   150
#   16662
#   35331
#   52762
#   66258
#   81318
#   99434
#   115908
#   131614
#   145882
#   161923
#   177189
#   195942
#   212191
#   235252
#   249912
#   266578
#   279736
#   303064
#
# Disc length: 4296 seconds
#
# Revision: 0
# Processed by: cddbd v1.5.2PL0 Copyright (c) Steve Scherf et al.
# Submitted via: uFREEDB ActiveX Control 1.5
#
DISCID=0010c613
DTITLE=Joao Bosco e Vinicius - Acustico pelo Brasil
DYEAR=2007
DGENRE=Country
TTITLE0=Querendo te encontrar
TTITLE1=Ex-amor/Deixa Eu Chorar
TTITLE2=Nao da pra continua
TTITLE3=So fazendo Amor
TTITLE4=Não e mais como antes
TTITLE5=Vou doar meu coração
TTITLE6=Coração Idiota
TTITLE7=Sofrendo por amor
TTITLE8=O Fora
TTITLE9=Vem me Amar
TTITLE10=Parece castigo
TTITLE11=Mania de me enganar
TTITLE12=Quero um Beijo
TTITLE13=Preciso amar de novo/Desejos
TTITLE14=Ah e
TTITLE15=Chora peito Chora
TTITLE16=To falando ta teimando
TTITLE17=Faz de conta que sou ele/o Amor me pegou
TTITLE18=Quero Provar que te Amo
EXTD=
EXTT0=
EXTT1=
EXTT2=
EXTT3=
EXTT4=
EXTT5=
EXTT6=
EXTT7=
EXTT8=
EXTT9=
EXTT10=
EXTT11=
EXTT12=
EXTT13=
EXTT14=
EXTT15=
EXTT16=
EXTT17=
EXTT18=
PLAYORDER=
